<svg width="162" height="155" viewBox="0 0 162 155" fill="none" xmlns="http://www.w3.org/2000/svg">
<path d="M143.988 54.6161L161.073 37.5314C161.777 36.8281 162.109 35.8331 161.968 34.8481C161.828 33.863 161.231 33.0003 160.358 32.5208L139.819 21.2426C138.288 20.4022 136.365 20.962 135.523 22.4934C134.683 24.026 135.241 25.9492 136.774 26.7896L153.617 36.0383L138.955 50.6993L86.2204 21.7419L100.881 7.08096L115.702 15.2198C117.233 16.0602 119.158 15.5016 119.998 13.969C120.84 12.4376 120.28 10.5132 118.747 9.67277L101.845 0.390693C100.612 -0.286614 99.0794 -0.0678486 98.0857 0.927101L80.9997 18.013L63.9138 0.927101C62.9189 -0.0678486 61.3863 -0.285378 60.154 0.390693L1.6411 32.5208C0.768506 33.0003 0.171537 33.8618 0.0318728 34.8481C-0.109027 35.8331 0.222211 36.8281 0.92671 37.5314L18.0114 54.6161L0.92671 71.6995C0.222211 72.404 -0.109027 73.3977 0.0318728 74.384C0.171537 75.3691 0.768506 76.2318 1.6411 76.7101L19.3228 86.4198V118.874C19.3228 120.029 19.9519 121.092 20.9641 121.648L79.477 153.777C79.9516 154.038 80.4757 154.168 80.9997 154.168C81.5238 154.168 82.0478 154.038 82.5224 153.777L141.035 121.648C142.048 121.092 142.677 120.029 142.677 118.874V86.4198L160.358 76.7114C161.231 76.2318 161.828 75.3691 161.968 74.384C162.109 73.399 161.777 72.404 161.073 71.7008L143.988 54.6161ZM80.9997 83.1347L29.0609 54.6148L80.9997 26.0938L132.939 54.6148L80.9997 83.1347ZM61.1193 7.08096L75.779 21.7419L23.0442 50.6993L8.38327 36.0383L61.1193 7.08096ZM23.0467 58.5316L75.7815 87.4889L61.1193 102.151L8.38327 73.1938L23.0467 58.5316ZM136.349 117.002L84.1638 145.657V113.313C84.1638 111.565 82.7474 110.149 80.9997 110.149C79.2521 110.149 77.8357 111.565 77.8357 113.313V145.657L25.6509 117.002V89.8954L60.154 108.841C60.6323 109.103 61.1564 109.232 61.6755 109.232C62.4949 109.232 63.3057 108.913 63.9138 108.305L80.9997 91.2191L98.0857 108.305C98.6938 108.914 99.5046 109.232 100.324 109.232C100.843 109.232 101.367 109.103 101.845 108.841L136.349 89.8954V117.002ZM100.881 102.151L86.2192 87.4877L138.954 58.5316L153.617 73.1926L100.881 102.151Z" fill="#17835A"/>
<path d="M128.081 21.5714C128.913 21.5714 129.726 21.2327 130.318 20.6432C130.907 20.0548 131.245 19.2391 131.245 18.4073C131.245 17.5743 130.907 16.7585 130.318 16.1702C129.73 15.5807 128.913 15.2432 128.081 15.2432C127.246 15.2432 126.432 15.5807 125.844 16.1702C125.252 16.7585 124.917 17.5743 124.917 18.4073C124.917 19.2391 125.252 20.0548 125.844 20.6432C126.432 21.2327 127.249 21.5714 128.081 21.5714Z" fill="#17835A"/>
<path d="M80.9997 99.6446C80.1679 99.6446 79.3509 99.982 78.7626 100.572C78.1743 101.162 77.8356 101.976 77.8356 102.809C77.8356 103.643 78.1743 104.456 78.7626 105.048C79.3509 105.637 80.1679 105.973 80.9997 105.973C81.8315 105.973 82.6485 105.637 83.2368 105.048C83.8251 104.456 84.1638 103.643 84.1638 102.809C84.1638 101.976 83.8251 101.162 83.2368 100.572C82.6485 99.982 81.8315 99.6446 80.9997 99.6446Z" fill="#17835A"/>
</svg>
